<?xml version="1.0" encoding="UTF-8"?>
<svg width="223px" height="80px" viewBox="0 0 223 80" version="1.1" xmlns="http://www.w3.org/2000/svg" xmlns:xlink="http://www.w3.org/1999/xlink">
    <!-- Generator: Sketch 63.1 (92452) - https://sketch.com -->
    <title>logo</title>
    <desc>Created with Sketch.</desc>
    <g id="logo" stroke="none" stroke-width="1" fill="none" fill-rule="evenodd">
        <g id="Group" transform="translate(143.000000, 0.000000)" fill="#F45905">
            <polygon id="Path" points="0 69.589191 31.22612 38.2362862 16.8766772 8.52861176 30.9872672 8.52861176 40.4255164 32.6953642 63.118177 8.29719067 59.54635 5.65771833 79.5332305 0 74.5226215 17.3818645 70.904559 14.8151378 46.8959236 39.0715427 58.7751497 63.8805972 62.5872915 62.685025 60.5759572 79.1430664 44.6755246 68.8767801 47.1713262 68.1164408 38.0433846 44.9372608 15.0533915 69.589191"></polygon>
        </g>
        <path d="M23.8,44.56 L11.88,44.56 L8.64,50 L0.28,50 L18.24,22 L26.04,22 L32.8,50 L24.92,50 L23.8,44.56 Z M22.6,38.72 L20.72,29.64 L15.36,38.72 L22.6,38.72 Z M52.992857,27.96 C55.3662022,27.96 57.2661832,28.593327 58.692857,29.86 C60.1195308,31.126673 60.832857,32.9466548 60.832857,35.32 C60.832857,36.2000044 60.7395246,37.0933288 60.552857,38 L58.152857,50 L50.552857,50 L52.792857,38.72 C52.8995242,38.2666644 52.952857,37.7866692 52.952857,37.28 C52.952857,35.3599904 51.952867,34.4 49.952857,34.4 C48.619517,34.4 47.5261946,34.8066626 46.672857,35.62 C45.8195194,36.4333374 45.2195254,37.6533252 44.872857,39.28 L42.712857,50 L35.112857,50 L39.432857,28.32 L46.632857,28.32 L46.192857,30.56 C47.126195,29.6799956 48.1795178,29.0266688 49.352857,28.6 C50.5261962,28.1733312 51.7395174,27.96 52.992857,27.96 Z M90.905714,28.32 L86.585714,50 L79.385714,50 L79.825714,47.96 C78.092372,49.560008 75.9990596,50.36 73.545714,50.36 C71.945706,50.36 70.445721,49.9666706 69.045714,49.18 C67.645707,48.3933294 66.5190516,47.2533408 65.665714,45.76 C64.8123764,44.2666592 64.385714,42.5066768 64.385714,40.48 C64.385714,38.1333216 64.9123754,36.0066762 65.965714,34.1 C67.0190526,32.1933238 68.445705,30.6933388 70.245714,29.6 C72.045723,28.5066612 74.01237,27.96 76.145714,27.96 C79.2923964,27.96 81.5057076,28.9466568 82.785714,30.92 L83.305714,28.32 L90.905714,28.32 Z M76.185714,44.24 C77.7057216,44.24 78.9457092,43.6800056 79.905714,42.56 C80.8657188,41.4399944 81.345714,39.9866756 81.345714,38.2 C81.345714,36.9199936 80.979051,35.9066704 80.245714,35.16 C79.512377,34.4133296 78.5057204,34.04 77.225714,34.04 C75.7057064,34.04 74.4657188,34.5999944 73.505714,35.72 C72.5457092,36.8400056 72.065714,38.3066576 72.065714,40.12 C72.065714,41.4000064 72.432377,42.406663 73.165714,43.14 C73.899051,43.873337 74.9057076,44.24 76.185714,44.24 Z M97.778571,20.32 L105.378571,20.32 L99.458571,50 L91.858571,50 L97.778571,20.32 Z M109.091428,28.32 L116.651428,28.32 L112.331428,50 L104.771428,50 L109.091428,28.32 Z M113.931428,25.92 C112.624755,25.92 111.571428,25.5600036 110.771428,24.84 C109.971424,24.1199964 109.571428,23.226672 109.571428,22.16 C109.571428,20.9066604 110.01809,19.8733374 110.911428,19.06 C111.804766,18.2466626 112.984754,17.84 114.451428,17.84 C115.784768,17.84 116.851424,18.1799966 117.651428,18.86 C118.451432,19.5400034 118.851428,20.413328 118.851428,21.48 C118.851428,22.7866732 118.398099,23.8533292 117.491428,24.68 C116.584757,25.5066708 115.398102,25.92 113.931428,25.92 Z M127.724285,41.92 C127.670951,42.2933352 127.644285,42.5333328 127.644285,42.64 C127.644285,43.8666728 128.310945,44.48 129.644285,44.48 C130.364285,44.48 131.124281,44.2666688 131.924285,43.84 L132.884285,49.08 C131.390944,49.9333376 129.510963,50.36 127.244285,50.36 C125.004274,50.36 123.224292,49.8000056 121.904285,48.68 C120.584278,47.5599944 119.924285,46.00001 119.924285,44 C119.924285,43.2266628 119.990951,42.5466696 120.124285,41.96 L121.564285,34.8 L118.364285,34.8 L119.524285,29.12 L122.684285,29.12 L123.804285,23.48 L131.404285,23.48 L130.284285,29.12 L135.204285,29.12 L134.084285,34.8 L129.164285,34.8 L127.724285,41.92 Z M162.677142,28.32 L148.797142,50.96 C147.65047,52.8000092 146.550481,54.2333282 145.497142,55.26 C144.443803,56.2866718 143.330481,57.0199978 142.157142,57.46 C140.983803,57.9000022 139.610483,58.12 138.037142,58.12 C136.89047,58.12 135.750481,57.9466684 134.617142,57.6 C133.483803,57.2533316 132.583812,56.8000028 131.917142,56.24 L135.317142,50.88 C136.277147,51.7066708 137.397136,52.12 138.677142,52.12 C139.370479,52.12 139.95714,51.9666682 140.437142,51.66 C140.917142,51.3533318 141.39714,50.8533368 141.877142,50.16 L136.957142,28.32 L144.517142,28.32 L147.237142,41.64 L155.237142,28.32 L162.677142,28.32 Z" id="Anality" fill="#000000"></path>
    </g>
</svg>